<?xml version="1.0" encoding="iso-8859-1"?>
<!-- Generator: Adobe Illustrator 19.0.0, SVG Export Plug-In . SVG Version: 6.00 Build 0)  -->
<svg version="1.1" id="Capa_1" xmlns="http://www.w3.org/2000/svg" xmlns:xlink="http://www.w3.org/1999/xlink" x="0px" y="0px"
	 viewBox="0 0 55.895 55.895" style="enable-background:new 0 0 55.895 55.895;" xml:space="preserve">
<g>
	<g>
		<path d="M34.319,27.278c0.001-0.223,0.003-0.816-0.534-1.157c-0.365-0.232-0.796-0.233-1.277-0.006
			c-3.111,1.468-6.515,1.909-10.019,2.265c-0.542,0.055-1.084,0.106-1.625,0.158c-2.656,0.254-5.402,0.516-8.083,1.179
			c-1.705,0.421-3.665,0.979-5.364,2.268c-1.967,1.493-2.641,3.914-1.716,6.167c0.539,1.313,1.57,2.333,3.152,3.119
			c1.899,0.944,3.948,1.293,5.522,1.492c1.434,0.181,2.818,0.271,4.162,0.271c3.735,0,7.141-0.702,10.323-2.119
			c1.935-0.86,3.311-1.704,4.463-2.738l0,0c0.694-0.624,1.033-1.402,1.007-2.315c-0.028-0.956-0.022-1.912-0.017-2.869
			L34.319,27.278z M31.986,36.689c-0.99,0.888-2.205,1.627-3.94,2.398c-3.983,1.775-8.371,2.329-13.421,1.69
			c-1.505-0.19-3.262-0.493-4.882-1.298c-1.144-0.569-1.841-1.232-2.193-2.088c-0.588-1.432-0.186-2.858,1.075-3.815
			c1.255-0.952,2.76-1.456,4.635-1.919c2.537-0.627,5.209-0.882,7.793-1.129c0.546-0.052,1.092-0.104,1.638-0.16
			c3.305-0.335,6.533-0.747,9.628-1.991l-0.005,4.604c-0.006,0.98-0.012,1.96,0.018,2.939C32.34,36.25,32.25,36.451,31.986,36.689z"
			/>
		<path d="M39.455,32.358l-0.001-4.404c-0.001-2.849-0.002-5.699,0.003-8.548c0.006-2.768-1.014-5.17-3.032-7.14
			c-2.115-2.065-4.809-3.374-8.477-4.118c-4.817-0.977-9.839-1.006-14.925-0.084c-2.607,0.472-4.786,1.303-6.661,2.54
			c-3.387,2.234-5.286,5.606-5.645,10.023c-0.042,0.518,0.151,0.845,0.32,1.028c0.371,0.401,0.877,0.396,1.077,0.4l0.345-0.001
			c1.216-0.006,2.432-0.01,3.649,0.006c0.568-0.003,1.255-0.199,1.477-1.215c0.189-0.864,0.436-1.853,0.98-2.658
			c0.835-1.236,2.125-2.085,4.061-2.673c3.428-1.041,6.951-1.022,10.248-0.847c1.846,0.098,3.5,0.383,5.056,0.87
			c1.175,0.369,2.505,0.88,3.459,1.883c0.881,0.926,0.845,1.664,0.741,2.138c-0.158,0.723-0.649,1.232-1.749,1.816
			c-2.451,1.299-5.236,1.731-7.879,2.062c-0.966,0.121-1.935,0.216-2.904,0.311c-1.763,0.173-3.585,0.353-5.381,0.687
			c-3.537,0.66-6.141,1.503-8.443,2.735c-2.726,1.459-4.58,3.649-5.362,6.332c-0.796,2.732-0.426,5.867,0.99,8.386
			c1.398,2.488,3.733,4.195,7.14,5.216c3.098,0.929,6.264,1.395,9.461,1.395c1.588,0,3.185-0.115,4.783-0.346
			c3.85-0.555,7.206-1.593,10.249-3.176c0.055,0.133,0.11,0.265,0.166,0.397c0.152,0.364,0.305,0.728,0.444,1.099
			c0.35,0.927,1.083,1.1,1.611,1.089c0.754-0.021,1.647-0.038,2.546,0.002c0.219,0.009,0.793,0.035,1.231-0.386
			c0.438-0.421,0.435-0.998,0.434-1.214c-0.016-3.502-0.015-7.003-0.013-10.504L39.455,32.358z M35.436,45.556
			c-0.125-0.32-0.257-0.637-0.39-0.955c-0.142-0.338-0.283-0.676-0.414-1.018c-0.076-0.199-0.254-0.667-0.771-0.856
			c-0.526-0.192-0.988,0.064-1.142,0.148c-2.983,1.657-6.325,2.736-10.218,3.297c-4.524,0.653-9.028,0.321-13.385-0.986
			c-2.926-0.877-4.823-2.237-5.971-4.28c-1.158-2.061-1.462-4.62-0.813-6.847c0.637-2.186,2.113-3.912,4.385-5.128
			c2.114-1.131,4.54-1.913,7.866-2.533c1.71-0.318,3.49-0.493,5.21-0.663c0.986-0.097,1.973-0.194,2.956-0.317
			c2.828-0.354,5.818-0.821,8.568-2.279c1.093-0.58,2.395-1.462,2.766-3.155c0.311-1.422-0.108-2.749-1.246-3.944
			c-1.268-1.332-2.89-1.967-4.31-2.413c-1.719-0.538-3.533-0.851-5.548-0.958c-1.028-0.055-2.078-0.095-3.143-0.095
			c-2.541,0-5.169,0.227-7.792,1.024c-2.399,0.729-4.032,1.831-5.138,3.468c-0.649,0.962-0.965,2.008-1.195,2.988
			c-0.975-0.01-1.951-0.007-2.925-0.003c0.442-3.449,1.977-5.998,4.676-7.779c1.645-1.085,3.58-1.818,5.916-2.241
			c4.834-0.876,9.602-0.851,14.171,0.077c3.274,0.664,5.649,1.804,7.477,3.588c1.64,1.601,2.434,3.466,2.429,5.705
			c-0.006,2.851-0.004,5.702-0.003,8.552l0.001,4.403l-0.001,3.101c-0.001,3.342-0.003,6.683,0.009,10.092
			C36.75,45.531,36.058,45.541,35.436,45.556z"/>
		<path d="M51.573,39.981c-0.003,0-0.005,0-0.008,0c-2.387,0-4.331,1.905-4.335,4.25c-0.003,1.115,0.439,2.174,1.244,2.981
			c0.826,0.829,1.922,1.287,3.086,1.288c0.002,0,0.004,0,0.006,0c1.148,0,2.231-0.44,3.049-1.239c0.825-0.807,1.28-1.878,1.28-3.019
			C55.896,41.858,53.998,39.986,51.573,39.981z M53.216,45.831c-0.442,0.432-1.028,0.669-1.651,0.669c-0.001,0-0.002,0-0.003,0
			c-0.63-0.001-1.224-0.25-1.672-0.7c-0.427-0.429-0.662-0.985-0.661-1.565c0.002-1.244,1.049-2.254,2.335-2.254
			c0.001,0,0.003,0,0.004,0c1.305,0.002,2.326,0.995,2.326,2.26C53.894,44.839,53.653,45.404,53.216,45.831z"/>
		<path d="M51.557,22.452c0.001,0,0.001,0,0.002,0c2.389,0,4.333-1.912,4.335-4.263c0.001-2.385-1.896-4.257-4.32-4.262
			c-0.003,0-0.005,0-0.008,0c-2.386,0-4.332,1.902-4.338,4.244c-0.003,1.115,0.441,2.177,1.252,2.991
			C49.296,21.982,50.418,22.452,51.557,22.452z M51.566,15.928c0.001,0,0.003,0,0.004,0c1.304,0.002,2.324,0.996,2.324,2.261
			c0,1.248-1.048,2.264-2.335,2.264c0,0-0.001,0-0.001,0c-0.612,0-1.217-0.256-1.661-0.702c-0.433-0.434-0.67-0.993-0.669-1.573
			C49.232,16.936,50.28,15.928,51.566,15.928z"/>
		<path d="M51.583,26.956c-0.007,0-0.015,0-0.022,0c-1.163,0-2.255,0.448-3.077,1.264c-0.806,0.799-1.252,1.855-1.256,2.975
			c-0.008,2.315,1.97,4.281,4.318,4.294c0.008,0,0.016,0,0.023,0c1.146,0,2.229-0.449,3.053-1.265
			c0.816-0.809,1.268-1.873,1.272-2.996C55.903,28.844,54.01,26.968,51.583,26.956z M53.215,32.803
			c-0.45,0.446-1.07,0.663-1.658,0.686c-1.245-0.007-2.333-1.075-2.329-2.287c0.002-0.584,0.238-1.139,0.664-1.562
			c0.448-0.444,1.065-0.645,1.681-0.684c1.307,0.006,2.326,1.001,2.321,2.265C53.892,31.809,53.651,32.372,53.215,32.803z"/>
	</g>
</g>
<g>
</g>
<g>
</g>
<g>
</g>
<g>
</g>
<g>
</g>
<g>
</g>
<g>
</g>
<g>
</g>
<g>
</g>
<g>
</g>
<g>
</g>
<g>
</g>
<g>
</g>
<g>
</g>
<g>
</g>
</svg>
