<?xml version="1.0" encoding="iso-8859-1"?>
<!-- Generator: Adobe Illustrator 19.0.0, SVG Export Plug-In . SVG Version: 6.00 Build 0)  -->
<svg version="1.1" id="Capa_1" xmlns="http://www.w3.org/2000/svg" xmlns:xlink="http://www.w3.org/1999/xlink" x="0px" y="0px"
	 viewBox="0 0 53.499 53.499" style="enable-background:new 0 0 53.499 53.499;" xml:space="preserve">
<g>
	<path d="M47.543,21.043l-26-8c-0.37-0.111-0.778-0.001-1.039,0.289c-0.261,0.292-0.328,0.708-0.172,1.065l5,11.5
		c0.097,0.223,0.271,0.403,0.491,0.507l6.747,3.175L7.444,43.742L17.94,33.723c0.197-0.19,0.31-0.45,0.31-0.724v-29
		c0-0.451-0.302-0.846-0.737-0.965l-11-3c-0.297-0.08-0.621-0.019-0.87,0.17C5.395,0.394,5.25,0.688,5.25,0.999v42.5
		c0,0.4,0.238,0.762,0.606,0.919c0.127,0.055,0.261,0.081,0.394,0.081c0.052,0,0.101-0.021,0.152-0.029
		c-0.088,0.141-0.141,0.304-0.151,0.475c-0.018,0.342,0.14,0.669,0.418,0.867l10.5,7.5c0.173,0.124,0.377,0.187,0.581,0.187
		c0.176,0,0.353-0.047,0.51-0.14l29.5-17.5c0.304-0.181,0.49-0.507,0.49-0.86v-13C48.25,21.56,47.963,21.172,47.543,21.043z
		 M7.25,2.309l9,2.454v27.809l-9,8.591V2.309z M46.25,34.43L17.8,51.307l-8.69-6.208L35.241,30.37
		c0.326-0.184,0.521-0.534,0.508-0.908c-0.014-0.373-0.234-0.708-0.573-0.868l-8.159-3.839l-3.982-9.161l23.216,7.143V34.43z"/>
</g>
<g>
</g>
<g>
</g>
<g>
</g>
<g>
</g>
<g>
</g>
<g>
</g>
<g>
</g>
<g>
</g>
<g>
</g>
<g>
</g>
<g>
</g>
<g>
</g>
<g>
</g>
<g>
</g>
<g>
</g>
</svg>
