<?xml version="1.0" encoding="iso-8859-1"?>
<!-- Generator: Adobe Illustrator 19.0.0, SVG Export Plug-In . SVG Version: 6.00 Build 0)  -->
<svg version="1.1" id="Capa_1" xmlns="http://www.w3.org/2000/svg" xmlns:xlink="http://www.w3.org/1999/xlink" x="0px" y="0px"
	 viewBox="0 0 48 48" style="enable-background:new 0 0 48 48;" xml:space="preserve">
<g>
	<g>
		<path d="M41,14c3.859,0,7-3.141,7-7s-3.141-7-7-7s-7,3.141-7,7S37.141,14,41,14z M41,2c2.757,0,5,2.243,5,5s-2.243,5-5,5
			s-5-2.243-5-5S38.243,2,41,2z"/>
		<path d="M24,0c-3.859,0-7,3.141-7,7s3.141,7,7,7s7-3.141,7-7S27.859,0,24,0z M24,12c-2.757,0-5-2.243-5-5s2.243-5,5-5s5,2.243,5,5
			S26.757,12,24,12z"/>
		<path d="M24,17c-3.859,0-7,3.141-7,7s3.141,7,7,7s7-3.141,7-7S27.859,17,24,17z M24,29c-2.757,0-5-2.243-5-5s2.243-5,5-5
			s5,2.243,5,5S26.757,29,24,29z"/>
		<path d="M7,0C3.141,0,0,3.141,0,7s3.141,7,7,7s7-3.141,7-7S10.859,0,7,0z M7,12c-2.757,0-5-2.243-5-5s2.243-5,5-5s5,2.243,5,5
			S9.757,12,7,12z"/>
		<path d="M41,17c-3.859,0-7,3.141-7,7s3.141,7,7,7s7-3.141,7-7S44.859,17,41,17z M41,29c-2.757,0-5-2.243-5-5s2.243-5,5-5
			s5,2.243,5,5S43.757,29,41,29z"/>
		<path d="M41,34c-3.859,0-7,3.141-7,7s3.141,7,7,7s7-3.141,7-7S44.859,34,41,34z M41,46c-2.757,0-5-2.243-5-5s2.243-5,5-5
			s5,2.243,5,5S43.757,46,41,46z"/>
	</g>
</g>
<g>
</g>
<g>
</g>
<g>
</g>
<g>
</g>
<g>
</g>
<g>
</g>
<g>
</g>
<g>
</g>
<g>
</g>
<g>
</g>
<g>
</g>
<g>
</g>
<g>
</g>
<g>
</g>
<g>
</g>
</svg>
