<?xml version="1.0" encoding="iso-8859-1"?>
<!-- Generator: Adobe Illustrator 19.0.0, SVG Export Plug-In . SVG Version: 6.00 Build 0)  -->
<svg version="1.1" id="Capa_1" xmlns="http://www.w3.org/2000/svg" xmlns:xlink="http://www.w3.org/1999/xlink" x="0px" y="0px"
	 viewBox="0 0 54.5 54.5" style="enable-background:new 0 0 54.5 54.5;" xml:space="preserve">
<g>
	<g>
		<path d="M28,0.75c-14.612,0-26.5,11.888-26.5,26.5c0,4.108,0.912,8.04,2.712,11.691l-4.135,9.924
			c-0.14,0.335-0.087,0.719,0.137,1.004c0.224,0.283,0.579,0.426,0.944,0.368l10.98-1.757c4.605,3.449,10.08,5.27,15.862,5.27
			c14.612,0,26.5-11.888,26.5-26.5S42.612,0.75,28,0.75z M28,51.75c-5.48,0-10.662-1.769-14.984-5.115
			c-0.177-0.137-0.392-0.209-0.612-0.209c-0.053,0-0.106,0.004-0.158,0.013l-9.632,1.541l3.622-8.692
			c0.113-0.272,0.101-0.58-0.034-0.842C4.409,34.961,3.5,31.194,3.5,27.25c0-13.51,10.991-24.5,24.5-24.5s24.5,10.99,24.5,24.5
			S41.509,51.75,28,51.75z"/>
		<path d="M30,13.75H17.5c-0.552,0-1,0.447-1,1v26c0,0.553,0.448,1,1,1H30c7.444,0,13.5-6.059,13.5-13.505v-0.99
			C43.5,19.809,37.444,13.75,30,13.75z M41.5,28.245c0,6.344-5.159,11.505-11.5,11.505H18.5v-24H30c6.341,0,11.5,5.161,11.5,11.505
			V28.245z"/>
		<path d="M28.501,20.75H25.5c-0.552,0-1,0.447-1,1v12c0,0.553,0.448,1,1,1h3.001c3.859,0,6.999-3.141,6.999-7
			S32.36,20.75,28.501,20.75z M28.501,32.75H26.5v-10h2.001c2.756,0,4.999,2.243,4.999,5S31.258,32.75,28.501,32.75z"/>
	</g>
</g>
<g>
</g>
<g>
</g>
<g>
</g>
<g>
</g>
<g>
</g>
<g>
</g>
<g>
</g>
<g>
</g>
<g>
</g>
<g>
</g>
<g>
</g>
<g>
</g>
<g>
</g>
<g>
</g>
<g>
</g>
</svg>
