<?xml version="1.0" encoding="iso-8859-1"?>
<!-- Generator: Adobe Illustrator 19.0.0, SVG Export Plug-In . SVG Version: 6.00 Build 0)  -->
<svg version="1.1" id="Capa_1" xmlns="http://www.w3.org/2000/svg" xmlns:xlink="http://www.w3.org/1999/xlink" x="0px" y="0px"
	 viewBox="0 0 52.899 52.899" style="enable-background:new 0 0 52.899 52.899;" xml:space="preserve">
<g>
	<g>
		<path d="M52.765,35.449c-0.179-0.309-0.508-0.499-0.865-0.499l-32.834,0.006c-0.36,0-0.692,0.193-0.87,0.506l-6.812,12.242
			l-0.416,0.725c-0.181,0.315-0.177,0.703,0.011,1.014s0.533,0.5,0.892,0.483l32.578,0.024c0.359,0,0.691-0.193,0.869-0.505
			l7.45-12.998C52.944,36.138,52.944,35.757,52.765,35.449z M43.868,47.949L13.56,47.905l6.09-10.95l30.522-0.006L43.868,47.949z"/>
		<path d="M35.79,32.212l0.138,0.238c0.179,0.309,0.509,0.5,0.866,0.5c0.001,0,0.002,0,0.003,0l0.279-0.001l13.763,0.001
			l0.839-0.003c0.357-0.001,0.687-0.193,0.864-0.503c0.177-0.31,0.176-0.69-0.003-1L36.125,3.445
			c-0.18-0.307-0.508-0.495-0.863-0.495L20.246,3.01c-0.357,0.002-0.685,0.194-0.862,0.504c-0.177,0.31-0.176,0.691,0.004,0.999
			L35.79,32.212z M34.689,4.951L49.934,30.95l-12.568-0.001L21.994,5.002L34.689,4.951z"/>
		<path d="M24.661,20.028c0.181-0.313,0.18-0.699-0.004-1.01L18.267,6.526l-0.422-0.722c-0.179-0.308-0.473-0.488-0.865-0.496
			c-0.356,0-0.685,0.19-0.863,0.498L0.275,33.698l-0.141,0.243c-0.18,0.31-0.179,0.694,0.001,1.004l7.558,12.942
			c0.179,0.307,0.508,0.496,0.864,0.496c0,0,0.002,0,0.002,0c0.356,0,0.686-0.191,0.864-0.5L24.52,20.272L24.661,20.028z
			 M8.541,45.371L2.155,34.438L16.959,8.359l5.694,11.159L8.541,45.371z"/>
	</g>
</g>
<g>
</g>
<g>
</g>
<g>
</g>
<g>
</g>
<g>
</g>
<g>
</g>
<g>
</g>
<g>
</g>
<g>
</g>
<g>
</g>
<g>
</g>
<g>
</g>
<g>
</g>
<g>
</g>
<g>
</g>
</svg>
