<?xml version="1.0" encoding="iso-8859-1"?>
<!-- Generator: Adobe Illustrator 19.0.0, SVG Export Plug-In . SVG Version: 6.00 Build 0)  -->
<svg version="1.1" id="Capa_1" xmlns="http://www.w3.org/2000/svg" xmlns:xlink="http://www.w3.org/1999/xlink" x="0px" y="0px"
	 viewBox="0 0 52 52" style="enable-background:new 0 0 52 52;" xml:space="preserve">
<g>
	<g>
		<path d="M26,0C11.663,0,0,11.664,0,26s11.663,26,26,26s26-11.664,26-26S40.337,0,26,0z M26,50C12.767,50,2,39.233,2,26
			S12.767,2,26,2s24,10.767,24,24S39.233,50,26,50z"/>
		<path d="M35,18c-4.411,0-8,3.589-8,8s3.589,8,8,8s8-3.589,8-8S39.411,18,35,18z M35,32c-3.309,0-6-2.691-6-6s2.691-6,6-6
			s6,2.691,6,6S38.309,32,35,32z"/>
		<path d="M16,18c-4.411,0-8,3.589-8,8s3.589,8,8,8s8-3.589,8-8S20.411,18,16,18z M16,32c-3.309,0-6-2.691-6-6s2.691-6,6-6
			s6,2.691,6,6S19.309,32,16,32z"/>
	</g>
</g>
<g>
</g>
<g>
</g>
<g>
</g>
<g>
</g>
<g>
</g>
<g>
</g>
<g>
</g>
<g>
</g>
<g>
</g>
<g>
</g>
<g>
</g>
<g>
</g>
<g>
</g>
<g>
</g>
<g>
</g>
</svg>
