<?xml version="1.0" encoding="iso-8859-1"?>
<!-- Generator: Adobe Illustrator 19.0.0, SVG Export Plug-In . SVG Version: 6.00 Build 0)  -->
<svg version="1.1" id="Capa_1" xmlns="http://www.w3.org/2000/svg" xmlns:xlink="http://www.w3.org/1999/xlink" x="0px" y="0px"
	 viewBox="0 0 52.484 52.484" style="enable-background:new 0 0 52.484 52.484;" xml:space="preserve">
<g>
	<path d="M44.808,0.952C44.339,0.347,43.592,0,42.757,0H10.168C8.519,0,7.176,1.347,7.176,3.003v47.889
		c0,0.313,0.048,0.618,0.144,0.906c0.113,0.346,0.407,0.603,0.767,0.67c0.061,0.011,0.122,0.017,0.183,0.017
		c0.296,0,0.581-0.132,0.773-0.366l15.566-18.981h12.055c0.455,0,0.854-0.308,0.968-0.749l3.152-12.137
		c0.078-0.299,0.013-0.618-0.177-0.862C40.417,19.144,40.125,19,39.815,19h-14.84c-1.379,0-2.5-1.121-2.5-2.5s1.121-2.5,2.5-2.5
		h16.657c0.455,0,0.854-0.308,0.968-0.749l2.613-10.063C45.426,2.375,45.277,1.56,44.808,0.952z M43.278,2.687L40.859,12H24.976
		c-2.481,0-4.5,2.019-4.5,4.5s2.019,4.5,4.5,4.5h13.547L35.89,31.137H24.135c-0.3,0-0.583,0.135-0.773,0.366L9.176,48.801V3.003
		C9.176,2.459,9.63,2,10.168,2h32.589c0.215,0,0.381,0.063,0.469,0.176C43.315,2.291,43.334,2.473,43.278,2.687z"/>
</g>
<g>
</g>
<g>
</g>
<g>
</g>
<g>
</g>
<g>
</g>
<g>
</g>
<g>
</g>
<g>
</g>
<g>
</g>
<g>
</g>
<g>
</g>
<g>
</g>
<g>
</g>
<g>
</g>
<g>
</g>
</svg>
