<?xml version="1.0" encoding="iso-8859-1"?>
<!-- Generator: Adobe Illustrator 19.0.0, SVG Export Plug-In . SVG Version: 6.00 Build 0)  -->
<svg version="1.1" id="Capa_1" xmlns="http://www.w3.org/2000/svg" xmlns:xlink="http://www.w3.org/1999/xlink" x="0px" y="0px"
	 viewBox="0 0 56 56" style="enable-background:new 0 0 56 56;" xml:space="preserve">
<g>
	<g>
		<path d="M13.5,6C5.93,6,0,9.514,0,14v35c0,0.553,0.447,1,1,1h0.127c0.457,0,0.855-0.31,0.969-0.753C2.847,46.305,7.856,44,13.5,44
			s10.653,2.305,11.404,5.247C25.018,49.69,25.416,50,25.873,50H26c0.553,0,1-0.447,1-1V14C27,9.514,21.07,6,13.5,6z M25,45.762
			C22.619,43.475,18.351,42,13.5,42S4.381,43.475,2,45.762V14c0-3.252,5.267-6,11.5-6S25,10.748,25,14V45.762z"/>
		<path d="M42.5,6C34.93,6,29,9.514,29,14v35c0,0.553,0.447,1,1,1h0.127c0.457,0,0.855-0.31,0.969-0.753
			C31.847,46.305,36.856,44,42.5,44s10.653,2.305,11.404,5.247C54.018,49.69,54.416,50,54.873,50H55c0.553,0,1-0.447,1-1V14
			C56,9.514,50.07,6,42.5,6z M54,45.762C51.619,43.475,47.351,42,42.5,42s-9.119,1.475-11.5,3.762V14c0-3.252,5.267-6,11.5-6
			S54,10.748,54,14V45.762z"/>
	</g>
</g>
<g>
</g>
<g>
</g>
<g>
</g>
<g>
</g>
<g>
</g>
<g>
</g>
<g>
</g>
<g>
</g>
<g>
</g>
<g>
</g>
<g>
</g>
<g>
</g>
<g>
</g>
<g>
</g>
<g>
</g>
</svg>
