<?xml version="1.0" encoding="iso-8859-1"?>
<!-- Generator: Adobe Illustrator 19.0.0, SVG Export Plug-In . SVG Version: 6.00 Build 0)  -->
<svg version="1.1" id="Capa_1" xmlns="http://www.w3.org/2000/svg" xmlns:xlink="http://www.w3.org/1999/xlink" x="0px" y="0px"
	 viewBox="0 0 54.738 54.738" style="enable-background:new 0 0 54.738 54.738;" xml:space="preserve">
<g>
	<path d="M52.957,39.802l-0.775-4.033c-0.257-1.333-1.009-2.428-2.118-3.082c-1.112-0.657-2.439-0.785-3.733-0.365l-15.456,5.022
		L20.691,3.868c-0.474-1.555-1.506-2.763-2.909-3.4c-1.401-0.638-2.991-0.623-4.473,0.044L5.454,4.037
		c-2.979,1.337-4.507,4.932-3.405,8.012l13.812,38.608c0.892,2.494,3.294,4.081,5.826,4.081c0.62,0,1.248-0.095,1.862-0.295
		l25.682-8.345C51.793,45.266,53.464,42.441,52.957,39.802z M48.614,44.196l-25.682,8.345c-2.114,0.684-4.44-0.462-5.188-2.558
		L3.931,11.375c-0.758-2.12,0.292-4.594,2.341-5.514l7.855-3.525c0.494-0.222,1.003-0.333,1.499-0.333
		c0.46,0,0.909,0.095,1.328,0.285c0.872,0.398,1.519,1.165,1.822,2.162L29.257,38.9c0.078,0.257,0.257,0.472,0.495,0.596
		c0.236,0.123,0.515,0.146,0.771,0.064l16.426-5.337c0.744-0.242,1.488-0.176,2.099,0.185c0.608,0.359,1.024,0.977,1.17,1.737
		l0.775,4.033C51.31,41.834,50.221,43.674,48.614,44.196z"/>
</g>
<g>
</g>
<g>
</g>
<g>
</g>
<g>
</g>
<g>
</g>
<g>
</g>
<g>
</g>
<g>
</g>
<g>
</g>
<g>
</g>
<g>
</g>
<g>
</g>
<g>
</g>
<g>
</g>
<g>
</g>
</svg>
