<?xml version="1.0" encoding="iso-8859-1"?>
<!-- Generator: Adobe Illustrator 19.0.0, SVG Export Plug-In . SVG Version: 6.00 Build 0)  -->
<svg version="1.1" id="Capa_1" xmlns="http://www.w3.org/2000/svg" xmlns:xlink="http://www.w3.org/1999/xlink" x="0px" y="0px"
	 viewBox="0 0 56 56" style="enable-background:new 0 0 56 56;" xml:space="preserve">
<g>
	<path d="M50.794,4.953l-16-4.909c-0.22-0.067-0.458-0.058-0.67,0.03l-29,11.8C4.747,12.027,4.5,12.393,4.5,12.8v31.346
		c0,0.417,0.259,0.79,0.649,0.937l29,10.854C34.262,55.979,34.381,56,34.5,56c0.08,0,0.16-0.01,0.238-0.029l16-3.928
		c0.447-0.109,0.762-0.51,0.762-0.971V5.909C51.5,5.47,51.213,5.082,50.794,4.953z M14.894,41.919
		C15.262,41.762,15.5,41.401,15.5,41V13.812l17-3.579v36.602l-21.395-3.291L14.894,41.919z M49.5,50.288l-14.938,3.667
		l-21.685-8.116l20.472,3.15C33.398,48.996,33.449,49,33.5,49c0.237,0,0.469-0.084,0.651-0.241C34.373,48.57,34.5,48.292,34.5,48V9
		c0-0.302-0.136-0.587-0.37-0.776c-0.234-0.191-0.542-0.264-0.836-0.202l-19,4C13.831,12.119,13.5,12.528,13.5,13v27.341
		l-6.394,2.74c-0.205,0.088-0.368,0.238-0.473,0.421L6.5,43.452V13.473L34.547,2.061L49.5,6.649V50.288z"/>
</g>
<g>
</g>
<g>
</g>
<g>
</g>
<g>
</g>
<g>
</g>
<g>
</g>
<g>
</g>
<g>
</g>
<g>
</g>
<g>
</g>
<g>
</g>
<g>
</g>
<g>
</g>
<g>
</g>
<g>
</g>
</svg>
