<?xml version="1.0" encoding="iso-8859-1"?>
<!-- Generator: Adobe Illustrator 19.0.0, SVG Export Plug-In . SVG Version: 6.00 Build 0)  -->
<svg version="1.1" id="Capa_1" xmlns="http://www.w3.org/2000/svg" xmlns:xlink="http://www.w3.org/1999/xlink" x="0px" y="0px"
	 viewBox="0 0 51 51" style="enable-background:new 0 0 51 51;" xml:space="preserve">
<g>
	<g>
		<path d="M40.999,0H10.002C4.487,0,0,4.487,0,10.002v30.996C0,46.513,4.487,51,10.002,51h30.997C46.513,51,51,46.513,51,40.998
			V10.002C51,4.487,46.513,0,40.999,0z M49,40.998C49,45.41,45.411,49,40.999,49H10.002C5.589,49,2,45.41,2,40.998V10.002
			C2,5.59,5.589,2,10.002,2h30.997C45.411,2,49,5.59,49,10.002V40.998z"/>
		<path d="M37,10H14c-0.552,0-1,0.447-1,1v8c0,0.553,0.448,1,1,1h23c0.552,0,1-0.447,1-1v-8C38,10.447,37.552,10,37,10z M36,18H15
			v-6h21V18z"/>
		<path d="M37,21H14c-0.552,0-1,0.447-1,1v18c0,0.553,0.448,1,1,1h23c0.552,0,1-0.447,1-1V22C38,21.447,37.552,21,37,21z M36,39H15
			V23h21V39z"/>
	</g>
</g>
<g>
</g>
<g>
</g>
<g>
</g>
<g>
</g>
<g>
</g>
<g>
</g>
<g>
</g>
<g>
</g>
<g>
</g>
<g>
</g>
<g>
</g>
<g>
</g>
<g>
</g>
<g>
</g>
<g>
</g>
</svg>
