<?xml version="1.0" encoding="iso-8859-1"?>
<!-- Generator: Adobe Illustrator 19.0.0, SVG Export Plug-In . SVG Version: 6.00 Build 0)  -->
<svg version="1.1" id="Capa_1" xmlns="http://www.w3.org/2000/svg" xmlns:xlink="http://www.w3.org/1999/xlink" x="0px" y="0px"
	 viewBox="0 0 49.226 49.226" style="enable-background:new 0 0 49.226 49.226;" xml:space="preserve">
<g>
	<path d="M37.739,30.596c-1.592,0-3.117,0.507-4.448,1.473l-12.736-7.172l12.202-7.311c1.47,1.21,3.245,1.869,5.073,1.869
		c4.752,0,8.618-4.363,8.618-9.726C46.448,4.364,42.581,0,37.829,0c-4.572,0-8.329,4.05-8.6,9.14l-13.075,7.865
		c-1.419-1.106-3.114-1.708-4.848-1.708c-4.703,0-8.528,4.318-8.528,9.626c0,5.306,3.826,9.622,8.528,9.622
		c1.735,0,3.434-0.603,4.853-1.712l13.326,7.283c0.098,5.042,3.763,9.109,8.254,9.109c4.553,0,8.258-4.179,8.258-9.315
		C45.997,34.774,42.292,30.596,37.739,30.596z M37.739,47.226c-3.45,0-6.256-3.282-6.256-7.315c0-0.061,0.004-0.12,0.007-0.178
		l0.03-0.783l-15.637-8.546l-0.528,0.489c-1.165,1.081-2.565,1.652-4.049,1.652c-3.6,0-6.528-3.42-6.528-7.622
		c0-4.205,2.929-7.626,6.528-7.626c1.49,0,2.896,0.576,4.065,1.667l0.551,0.514l15.29-9.198l0.001-0.564
		C31.219,5.461,34.187,2,37.829,2c3.65,0,6.619,3.467,6.619,7.728c0,4.26-2.969,7.726-6.618,7.726c-1.549,0-3.059-0.646-4.252-1.819
		l-0.552-0.542L17.827,24.2v1.456l15.678,8.829l0.532-0.458c1.087-0.937,2.367-1.431,3.701-1.431c3.451,0,6.258,3.281,6.258,7.315
		S41.19,47.226,37.739,47.226z"/>
</g>
<g>
</g>
<g>
</g>
<g>
</g>
<g>
</g>
<g>
</g>
<g>
</g>
<g>
</g>
<g>
</g>
<g>
</g>
<g>
</g>
<g>
</g>
<g>
</g>
<g>
</g>
<g>
</g>
<g>
</g>
</svg>
