<?xml version="1.0" encoding="iso-8859-1"?>
<!-- Generator: Adobe Illustrator 19.0.0, SVG Export Plug-In . SVG Version: 6.00 Build 0)  -->
<svg version="1.1" id="Capa_1" xmlns="http://www.w3.org/2000/svg" xmlns:xlink="http://www.w3.org/1999/xlink" x="0px" y="0px"
	 viewBox="0 0 48.856 48.856" style="enable-background:new 0 0 48.856 48.856;" xml:space="preserve">
<g>
	<path d="M21.796,45.541c-1.388,0-6.109-1.125-9.573-15.339c-0.019-0.083-1.811-7.605-4.436-12.846
		c-0.018-0.036-0.263-0.513-0.765-0.584c-0.342-0.049-1.315,0.037-3.033,1.88c-0.195,0.209-0.49,0.344-0.756,0.318
		c-0.286-0.007-0.555-0.136-0.74-0.354l-2.258-2.675c-0.33-0.391-0.312-0.968,0.042-1.337c0.3-0.313,7.377-7.658,11.859-9.711
		c0.45-0.26,3.078-1.654,5.722-0.414c2.445,1.148,4.02,4.119,4.68,8.833c1.002,7.99,2.921,15.142,4.221,15.776
		c0.291-0.039,2.615-0.665,6.503-10.431c0.054-0.263,0.292-1.646-0.447-2.363c-0.75-0.728-2.475-0.753-4.854-0.072
		c-0.338,0.096-0.705,0.008-0.96-0.233c-0.257-0.242-0.367-0.601-0.291-0.945c0.026-0.121,2.813-12.042,14.265-11.718
		c0.17,0.004,4.21,0.143,6.461,3.508c1.997,2.984,1.886,7.421-0.328,13.189c-0.522,1.058-12.026,23.866-24.959,25.493
		C22.089,45.523,21.968,45.541,21.796,45.541z M6.876,14.761c0.162,0,0.322,0.013,0.48,0.038c1.528,0.246,2.166,1.544,2.234,1.691
		c2.716,5.423,4.503,12.929,4.578,13.246c3.402,13.958,7.635,13.819,7.67,13.801c11.935-1.503,23.329-24.095,23.442-24.323
		c1.901-4.965,2.085-8.894,0.494-11.271c-1.682-2.514-4.818-2.621-4.85-2.622c-7.434-0.186-10.629,5.663-11.75,8.567
		c2.289-0.39,3.982-0.062,5.045,0.979c1.658,1.624,0.997,4.229,0.968,4.339c-0.01,0.039-0.023,0.077-0.038,0.115
		c-2.703,6.808-5.226,10.705-7.499,11.583c-0.783,0.304-1.333,0.159-1.56,0.069c-0.853-0.334-3.677-2.579-5.534-17.4
		c-0.551-3.931-1.778-6.455-3.547-7.285c-1.845-0.866-3.864,0.33-3.884,0.341c-0.037,0.023-0.076,0.043-0.115,0.062
		c-3.406,1.537-8.825,6.812-10.66,8.655l0.972,1.151C4.589,15.343,5.779,14.761,6.876,14.761z M26.896,29.143
		c0.001,0,0.002,0.001,0.002,0.001C26.898,29.144,26.897,29.144,26.896,29.143z M26.893,29.142c0,0,0.001,0,0.002,0.001
		C26.895,29.143,26.894,29.143,26.893,29.142z M26.891,29.141C26.892,29.141,26.892,29.142,26.891,29.141
		C26.892,29.142,26.892,29.141,26.891,29.141z"/>
</g>
<g>
</g>
<g>
</g>
<g>
</g>
<g>
</g>
<g>
</g>
<g>
</g>
<g>
</g>
<g>
</g>
<g>
</g>
<g>
</g>
<g>
</g>
<g>
</g>
<g>
</g>
<g>
</g>
<g>
</g>
</svg>
